<svg xmlns="http://www.w3.org/2000/svg" viewBox="0 0 1280 640" width="1280" height="640">
  <defs>
    <linearGradient id="amber" x1="0%" y1="0%" x2="100%" y2="100%">
      <stop offset="0%" stop-color="#f59e0b"/>
      <stop offset="100%" stop-color="#fbbf24"/>
    </linearGradient>
    <linearGradient id="amberDark" x1="0%" y1="0%" x2="100%" y2="100%">
      <stop offset="0%" stop-color="#d97706"/>
      <stop offset="100%" stop-color="#f59e0b"/>
    </linearGradient>
    <linearGradient id="amberLight" x1="0%" y1="100%" x2="100%" y2="0%">
      <stop offset="0%" stop-color="#fbbf24"/>
      <stop offset="100%" stop-color="#fcd34d"/>
    </linearGradient>
    <linearGradient id="steel" x1="0%" y1="0%" x2="0%" y2="100%">
      <stop offset="0%" stop-color="#475569"/>
      <stop offset="100%" stop-color="#334155"/>
    </linearGradient>
    <linearGradient id="steelLight" x1="0%" y1="0%" x2="0%" y2="100%">
      <stop offset="0%" stop-color="#64748b"/>
      <stop offset="100%" stop-color="#475569"/>
    </linearGradient>
    <!-- Glow filter for the word -->
    <filter id="glow" x="-50%" y="-50%" width="200%" height="200%">
      <feGaussianBlur stdDeviation="6" result="blur"/>
      <feMerge>
        <feMergeNode in="blur"/>
        <feMergeNode in="SourceGraphic"/>
      </feMerge>
    </filter>
    <filter id="softGlow" x="-50%" y="-50%" width="200%" height="200%">
      <feGaussianBlur stdDeviation="12" result="blur"/>
      <feMerge>
        <feMergeNode in="blur"/>
        <feMergeNode in="SourceGraphic"/>
      </feMerge>
    </filter>
  </defs>

  <!-- Background -->
  <rect width="1280" height="640" fill="#0f172a"/>

  <!-- Subtle hex grid -->
  <g opacity="0.04" stroke="#94a3b8" stroke-width="0.5" fill="none">
    <!-- Row 1 -->
    <polygon points="40,20 60,10 80,20 80,40 60,50 40,40"/>
    <polygon points="80,20 100,10 120,20 120,40 100,50 80,40"/>
    <polygon points="120,20 140,10 160,20 160,40 140,50 120,40"/>
    <polygon points="160,20 180,10 200,20 200,40 180,50 160,40"/>
    <polygon points="200,20 220,10 240,20 240,40 220,50 200,40"/>
    <polygon points="240,20 260,10 280,20 280,40 260,50 240,40"/>
    <polygon points="280,20 300,10 320,20 320,40 300,50 280,40"/>
    <polygon points="320,20 340,10 360,20 360,40 340,50 320,40"/>
    <polygon points="360,20 380,10 400,20 400,40 380,50 360,40"/>
    <polygon points="400,20 420,10 440,20 440,40 420,50 400,40"/>
    <polygon points="440,20 460,10 480,20 480,40 460,50 440,40"/>
    <polygon points="480,20 500,10 520,20 520,40 500,50 480,40"/>
    <polygon points="520,20 540,10 560,20 560,40 540,50 520,40"/>
    <polygon points="560,20 580,10 600,20 600,40 580,50 560,40"/>
    <polygon points="600,20 620,10 640,20 640,40 620,50 600,40"/>
    <polygon points="640,20 660,10 680,20 680,40 660,50 640,40"/>
    <polygon points="680,20 700,10 720,20 720,40 700,50 680,40"/>
    <polygon points="720,20 740,10 760,20 760,40 740,50 720,40"/>
    <polygon points="760,20 780,10 800,20 800,40 780,50 760,40"/>
    <polygon points="800,20 820,10 840,20 840,40 820,50 800,40"/>
    <polygon points="840,20 860,10 880,20 880,40 860,50 840,40"/>
    <polygon points="880,20 900,10 920,20 920,40 900,50 880,40"/>
    <polygon points="920,20 940,10 960,20 960,40 940,50 920,40"/>
    <polygon points="960,20 980,10 1000,20 1000,40 980,50 960,40"/>
    <polygon points="1000,20 1020,10 1040,20 1040,40 1020,50 1000,40"/>
    <polygon points="1040,20 1060,10 1080,20 1080,40 1060,50 1040,40"/>
    <polygon points="1080,20 1100,10 1120,20 1120,40 1100,50 1080,40"/>
    <polygon points="1120,20 1140,10 1160,20 1160,40 1140,50 1120,40"/>
    <polygon points="1160,20 1180,10 1200,20 1200,40 1180,50 1160,40"/>
    <polygon points="1200,20 1220,10 1240,20 1240,40 1220,50 1200,40"/>
    <!-- Row 2 (offset) -->
    <polygon points="60,50 80,40 100,50 100,70 80,80 60,70"/>
    <polygon points="100,50 120,40 140,50 140,70 120,80 100,70"/>
    <polygon points="140,50 160,40 180,50 180,70 160,80 140,70"/>
    <polygon points="180,50 200,40 220,50 220,70 200,80 180,70"/>
    <polygon points="220,50 240,40 260,50 260,70 240,80 220,70"/>
    <polygon points="260,50 280,40 300,50 300,70 280,80 260,70"/>
    <polygon points="300,50 320,40 340,50 340,70 320,80 300,70"/>
    <polygon points="340,50 360,40 380,50 380,70 360,80 340,70"/>
    <polygon points="380,50 400,40 420,50 420,70 400,80 380,70"/>
    <polygon points="420,50 440,40 460,50 460,70 440,80 420,70"/>
    <polygon points="460,50 480,40 500,50 500,70 480,80 460,70"/>
    <polygon points="500,50 520,40 540,50 540,70 520,80 500,70"/>
    <polygon points="540,50 560,40 580,50 580,70 560,80 540,70"/>
    <polygon points="580,50 600,40 620,50 620,70 600,80 580,70"/>
    <polygon points="620,50 640,40 660,50 660,70 640,80 620,70"/>
    <polygon points="660,50 680,40 700,50 700,70 680,80 660,70"/>
    <polygon points="700,50 720,40 740,50 740,70 720,80 700,70"/>
    <polygon points="740,50 760,40 780,50 780,70 760,80 740,70"/>
    <polygon points="780,50 800,40 820,50 820,70 800,80 780,70"/>
    <polygon points="820,50 840,40 860,50 860,70 840,80 820,70"/>
    <polygon points="860,50 880,40 900,50 900,70 880,80 860,70"/>
    <polygon points="900,50 920,40 940,50 940,70 920,80 900,70"/>
    <polygon points="940,50 960,40 980,50 980,70 960,80 940,70"/>
    <polygon points="980,50 1000,40 1020,50 1020,70 1000,80 980,70"/>
    <polygon points="1020,50 1040,40 1060,50 1060,70 1040,80 1020,70"/>
    <polygon points="1060,50 1080,40 1100,50 1100,70 1080,80 1060,70"/>
    <polygon points="1100,50 1120,40 1140,50 1140,70 1120,80 1100,70"/>
    <polygon points="1140,50 1160,40 1180,50 1180,70 1160,80 1140,70"/>
    <polygon points="1180,50 1200,40 1220,50 1220,70 1200,80 1180,70"/>
    <!-- Row 3 -->
    <polygon points="40,80 60,70 80,80 80,100 60,110 40,100"/>
    <polygon points="80,80 100,70 120,80 120,100 100,110 80,100"/>
    <polygon points="120,80 140,70 160,80 160,100 140,110 120,100"/>
    <polygon points="160,80 180,70 200,80 200,100 180,110 160,100"/>
    <polygon points="200,80 220,70 240,80 240,100 220,110 200,100"/>
    <polygon points="240,80 260,70 280,80 280,100 260,110 240,100"/>
    <polygon points="280,80 300,70 320,80 320,100 300,110 280,100"/>
    <polygon points="320,80 340,70 360,80 360,100 340,110 320,100"/>
    <polygon points="360,80 380,70 400,80 400,100 380,110 360,100"/>
    <polygon points="400,80 420,70 440,80 440,100 420,110 400,100"/>
    <polygon points="440,80 460,70 480,80 480,100 460,110 440,100"/>
    <polygon points="480,80 500,70 520,80 520,100 500,110 480,100"/>
    <polygon points="520,80 540,70 560,80 560,100 540,110 520,100"/>
    <polygon points="560,80 580,70 600,80 600,100 580,110 560,100"/>
    <polygon points="600,80 620,70 640,80 640,100 620,110 600,100"/>
    <polygon points="640,80 660,70 680,80 680,100 660,110 640,100"/>
    <polygon points="680,80 700,70 720,80 720,100 700,110 680,100"/>
    <polygon points="720,80 740,70 760,80 760,100 740,110 720,100"/>
    <polygon points="760,80 780,70 800,80 800,100 780,110 760,100"/>
    <polygon points="800,80 820,70 840,80 840,100 820,110 800,100"/>
    <polygon points="840,80 860,70 880,80 880,100 860,110 840,100"/>
    <polygon points="880,80 900,70 920,80 920,100 900,110 880,100"/>
    <polygon points="920,80 940,70 960,80 960,100 940,110 920,100"/>
    <polygon points="960,80 980,70 1000,80 1000,100 980,110 960,100"/>
    <polygon points="1000,80 1020,70 1040,80 1040,100 1020,110 1000,100"/>
    <polygon points="1040,80 1060,70 1080,80 1080,100 1060,110 1040,100"/>
    <polygon points="1080,80 1100,70 1120,80 1120,100 1100,110 1080,100"/>
    <polygon points="1120,80 1140,70 1160,80 1160,100 1140,110 1120,100"/>
    <polygon points="1160,80 1180,70 1200,80 1200,100 1180,110 1160,100"/>
    <polygon points="1200,80 1220,70 1240,80 1240,100 1220,110 1200,100"/>
    <!-- Rows 4-7 (sparser) -->
    <polygon points="60,110 80,100 100,110 100,130 80,140 60,130"/>
    <polygon points="140,110 160,100 180,110 180,130 160,140 140,130"/>
    <polygon points="220,110 240,100 260,110 260,130 240,140 220,130"/>
    <polygon points="300,110 320,100 340,110 340,130 320,140 300,130"/>
    <polygon points="380,110 400,100 420,110 420,130 400,140 380,130"/>
    <polygon points="460,110 480,100 500,110 500,130 480,140 460,130"/>
    <polygon points="540,110 560,100 580,110 580,130 560,140 540,130"/>
    <polygon points="620,110 640,100 660,110 660,130 640,140 620,130"/>
    <polygon points="700,110 720,100 740,110 740,130 720,140 700,130"/>
    <polygon points="780,110 800,100 820,110 820,130 800,140 780,130"/>
    <polygon points="860,110 880,100 900,110 900,130 880,140 860,130"/>
    <polygon points="940,110 960,100 980,110 980,130 960,140 940,130"/>
    <polygon points="1020,110 1040,100 1060,110 1060,130 1040,140 1020,130"/>
    <polygon points="1100,110 1120,100 1140,110 1140,130 1120,140 1100,130"/>
    <polygon points="1180,110 1200,100 1220,110 1220,130 1200,140 1180,130"/>
    <polygon points="40,140 60,130 80,140 80,160 60,170 40,160"/>
    <polygon points="160,140 180,130 200,140 200,160 180,170 160,160"/>
    <polygon points="280,140 300,130 320,140 320,160 300,170 280,160"/>
    <polygon points="400,140 420,130 440,140 440,160 420,170 400,160"/>
    <polygon points="520,140 540,130 560,140 560,160 540,170 520,160"/>
    <polygon points="640,140 660,130 680,140 680,160 660,170 640,160"/>
    <polygon points="760,140 780,130 800,140 800,160 780,170 760,160"/>
    <polygon points="880,140 900,130 920,140 920,160 900,170 880,160"/>
    <polygon points="1000,140 1020,130 1040,140 1040,160 1020,170 1000,160"/>
    <polygon points="1120,140 1140,130 1160,140 1160,160 1140,170 1120,160"/>
    <polygon points="1240,140 1260,130 1280,140 1280,160 1260,170 1240,160"/>
    <!-- Bottom rows -->
    <polygon points="60,470 80,460 100,470 100,490 80,500 60,490"/>
    <polygon points="180,470 200,460 220,470 220,490 200,500 180,490"/>
    <polygon points="300,470 320,460 340,470 340,490 320,500 300,490"/>
    <polygon points="420,470 440,460 460,470 460,490 440,500 420,490"/>
    <polygon points="540,470 560,460 580,470 580,490 560,500 540,490"/>
    <polygon points="660,470 680,460 700,470 700,490 680,500 660,490"/>
    <polygon points="780,470 800,460 820,470 820,490 800,500 780,490"/>
    <polygon points="900,470 920,460 940,470 940,490 920,500 900,490"/>
    <polygon points="1020,470 1040,460 1060,470 1060,490 1040,500 1020,490"/>
    <polygon points="1140,470 1160,460 1180,470 1180,490 1160,500 1140,490"/>
    <polygon points="40,500 60,490 80,500 80,520 60,530 40,520"/>
    <polygon points="160,500 180,490 200,500 200,520 180,530 160,520"/>
    <polygon points="280,500 300,490 320,500 320,520 300,530 280,520"/>
    <polygon points="400,500 420,490 440,500 440,520 420,530 400,520"/>
    <polygon points="520,500 540,490 560,500 560,520 540,530 520,520"/>
    <polygon points="640,500 660,490 680,500 680,520 660,530 640,520"/>
    <polygon points="760,500 780,490 800,500 800,520 780,530 760,520"/>
    <polygon points="880,500 900,490 920,500 920,520 900,530 880,520"/>
    <polygon points="1000,500 1020,490 1040,500 1040,520 1020,530 1000,520"/>
    <polygon points="1120,500 1140,490 1160,500 1160,520 1140,530 1120,520"/>
    <polygon points="60,530 80,520 100,530 100,550 80,560 60,550"/>
    <polygon points="180,530 200,520 220,530 220,550 200,560 180,550"/>
    <polygon points="300,530 320,520 340,530 340,550 320,560 300,550"/>
    <polygon points="420,530 440,520 460,530 460,550 440,560 420,550"/>
    <polygon points="540,530 560,520 580,530 580,550 560,560 540,550"/>
    <polygon points="660,530 680,520 700,530 700,550 680,560 660,550"/>
    <polygon points="780,530 800,520 820,530 820,550 800,560 780,550"/>
    <polygon points="900,530 920,520 940,530 940,550 920,560 900,550"/>
    <polygon points="1020,530 1040,520 1060,530 1060,550 1040,560 1020,550"/>
    <polygon points="1140,530 1160,520 1180,530 1180,550 1160,560 1140,550"/>
    <polygon points="40,560 60,550 80,560 80,580 60,590 40,580"/>
    <polygon points="160,560 180,550 200,560 200,580 180,590 160,580"/>
    <polygon points="280,560 300,550 320,560 320,580 300,590 280,580"/>
    <polygon points="400,560 420,550 440,560 440,580 420,590 400,580"/>
    <polygon points="520,560 540,550 560,560 560,580 540,590 520,580"/>
    <polygon points="640,560 660,550 680,560 680,580 660,590 640,580"/>
    <polygon points="760,560 780,550 800,560 800,580 780,590 760,580"/>
    <polygon points="880,560 900,550 920,560 920,580 900,590 880,580"/>
    <polygon points="1000,560 1020,550 1040,560 1040,580 1020,590 1000,580"/>
    <polygon points="1120,560 1140,550 1160,560 1160,580 1140,590 1120,580"/>
  </g>

  <!-- Speech bubble illustration — centred at ~320,300 -->
  <g transform="translate(200, 160)">
    <!-- Speech bubble body -->
    <rect x="40" y="40" width="240" height="160" rx="24" fill="url(#steel)" stroke="url(#steelLight)" stroke-width="2"/>
    <!-- Bubble tail -->
    <polygon points="120,200 100,250 170,200" fill="url(#steel)"/>
    <line x1="120" y1="200" x2="100" y2="250" stroke="url(#steelLight)" stroke-width="2"/>
    <line x1="100" y1="250" x2="155" y2="200" stroke="url(#steel)" stroke-width="3"/>

    <!-- Word inside bubble — "carbon" in amber glow -->
    <text x="160" y="135" text-anchor="middle" font-family="'SF Mono', 'Fira Code', 'JetBrains Mono', 'Menlo', monospace" font-size="42" font-weight="bold" fill="url(#amber)" filter="url(#glow)">donkey</text>

    <!-- Subtle HMAC hash hint below the word -->
    <text x="160" y="170" text-anchor="middle" font-family="'SF Mono', 'Fira Code', 'Menlo', monospace" font-size="10" fill="#475569" opacity="0.5">HMAC-SHA256 &#x2192; 2048 words</text>
  </g>

  <!-- Sound waves radiating from bubble -->
  <g transform="translate(450, 270)" stroke="#fbbf24" fill="none" stroke-linecap="round">
    <path d="M 0,0 Q 18,-20 18,-40 Q 18,-60 0,-80" stroke-width="3" opacity="0.6"/>
    <path d="M 14,10 Q 38,-18 38,-45 Q 38,-72 14,-100" stroke-width="2.5" opacity="0.35"/>
    <path d="M 28,18 Q 56,-16 56,-48 Q 56,-80 28,-114" stroke-width="2" opacity="0.18"/>
  </g>

  <!-- Floating word particles — other token words scattered faintly -->
  <g font-family="'SF Mono', 'Fira Code', 'Menlo', monospace" font-size="11" fill="#64748b" opacity="0.12">
    <text x="80" y="120">falcon</text>
    <text x="440" y="150">timber</text>
    <text x="120" y="460">canyon</text>
    <text x="400" y="440">marble</text>
    <text x="50" y="310">alpine</text>
    <text x="480" y="370">beacon</text>
  </g>

  <!-- Divider -->
  <g transform="translate(580, 220)">
    <line x1="0" y1="0" x2="0" y2="200" stroke="#334155" stroke-width="1" opacity="0.5"/>
    <line x1="6" y1="0" x2="6" y2="200" stroke="#334155" stroke-width="1" opacity="0.5"/>
    <!-- Key icon (representing shared secret) -->
    <g transform="translate(-6, 82)" fill="none" stroke="#64748b" stroke-width="1.5">
      <!-- Key head (circle) -->
      <circle cx="9" cy="8" r="7" fill="#1e293b" stroke="#64748b"/>
      <circle cx="9" cy="8" r="3" fill="none" stroke="#64748b"/>
      <!-- Key shaft -->
      <line x1="16" y1="8" x2="16" y2="28" stroke="#64748b" stroke-width="1.5"/>
      <!-- Key teeth -->
      <line x1="16" y1="22" x2="20" y2="22" stroke="#64748b" stroke-width="1.5"/>
      <line x1="16" y1="26" x2="20" y2="26" stroke="#64748b" stroke-width="1.5"/>
    </g>
  </g>

  <!-- Title: spoken-token -->
  <text x="660" y="310" font-family="'SF Mono', 'Fira Code', 'JetBrains Mono', 'Menlo', monospace" font-size="48" font-weight="bold" fill="#f8fafc">spoken-token</text>

  <!-- Tagline -->
  <text x="660" y="348" font-family="'Inter', -apple-system, 'Segoe UI', sans-serif" font-size="18" fill="#94a3b8">say the word. prove you're real.</text>

  <!-- Keyword ticker -->
  <text y="622" font-family="'SF Mono', 'Fira Code', 'Menlo', monospace" font-size="12" fill="#94a3b8" opacity="0.06">
    <tspan x="30">totp</tspan>
    <tspan x="120">hmac</tspan>
    <tspan x="210">verification</tspan>
    <tspan x="340">spoken-word</tspan>
    <tspan x="470">wordlist</tspan>
    <tspan x="570">rideshare</tspan>
    <tspan x="680">phone-auth</tspan>
    <tspan x="800">identity</tspan>
    <tspan x="900">offline-first</tspan>
    <tspan x="1030">crypto</tspan>
    <tspan x="1110">zero-dep</tspan>
    <tspan x="1200">esm</tspan>
  </text>
</svg>
